<svg width="32" height="32">
  <g>

  <!-- Piste -->
    <path stroke="rgb(0,0,0)" fill="rgb(0,0,0)" d="M 0,12 L 31,12 L 31,19 L 0,19 z " />

  <!-- Remplissage jaune -->
    <path stroke="rgb(255,255,0)" fill="rgb(255,255,0)" d="M 8,14 L 23,14 L 23,17 L 8,17 z " />

  <!-- Pied -->
    <path stroke="rgb(90,90,90)" fill="rgb(90,90,90)" d="M 22,25 L 29,25 L 29,22 L 31,22 L 31,30 L 29,30 L 29,27 L 22,27 z " />

  <!-- signal -->
    <path stroke="rgb(0,0,0)" fill="rgb(0,0,0)" d="M 3,31 L 2,30 L 1,29 L 0,26 L 0,25 L 1,23 L2,22 L 3,21 L 19,21 L 20,22 L 21,23 L 22,25 L 22,26 L 21,29 L 20,30 L 19,31 z " />

  <!-- liseré -->
     <path stroke="rgb(255,255,255)" fill="rgb(0,0,0)" d="M 3,30 L2,29 L 1,27 L 1,25 L 2,23 L3,22 L 19,22 L 20,23 L 21,25 L 21,27 L 20,29 L 19,30 z " />

  <!-- Vert éteint -->
    <path stroke="rgb(0,90,0)" fill="rgb(0,90,0)" d="M 4,24 L 6,24 L 7,25 L 7,27 L 6,28 L 4,28 L 3,27 L 3,25 z " />

  <!-- Rouge éteint -->
    <path stroke="rgb(90,0,0)" fill="rgb(90,0,0)" d="M 10,24 L 12,24 L 13,25 L 13,27 L 12,28 L 10,28 L 9,27 L 9,25 z " />

  <!-- Jaune éteint -->  
    <path stroke="rgb(90,90,0)" fill="rgb(90,90,0)" d="M 16,24 L 18,24 L 19,25 L 19,27 L 18,28 L 16,28 L 15,27 L 15,25 z " />    
  
  </g>
</svg>