<svg width="32" height="32">
  <g>

  <!-- Piste -->
    <path stroke="rgb(0,0,0)" fill="rgb(0,0,0)" d="M 0,12 L 1,12 L 1,19 L 0,19 z " />

    <path stroke="rgb(0,0,0)" fill="rgb(0,0,0)" d="M 15,12 L 31,12 L 31,19 L 15,19 z " />

  <!-- Remplissage gris -->
    <path stroke="rgb(192,192,192)" fill="rgb(192,192,192)" d="M 18,14 L 28,14 L 28,17 L 18,17 z " />

  <!-- signal -->
    <path stroke="rgb(0,0,0)" fill="rgb(0,0,0)" d="M 3,11 L 5,8 L 8,7 L 11,8 L 13,11 L 13,20 L 11,23 L 8,24 L 5,23L 3,20  z " />

  <!-- liseré --> 
     <path stroke="rgb(255,255,255)" fill="rgb(0,0,0)" d="M 4,11 L 5,9 L 7,8 L 9,8 L 11,9 L 12,11 L 12,20 L 11,22 L 9,23 L 7,23 L 5,22 L 4,20  z " />

  <!-- Blanc allumé -->
    <path stroke="rgb(255,255,255)" fill="rgb(255,255,255)" d="M 7,17 L 9,17 L 10,18 L 10,20 L 9,21 L 7,21 L 6,20 L 6,18 z " /> 

  <!-- Violet éteint -->
    <path stroke="rgb(90,0,90)" fill="rgb(90,0,90)" d="M 7,10 L 9,10 L 10,11 L 10,13 L 9,14 L 7,14 L 6,13 L 6,11 z " />

  </g>
</svg>