<svg width="32" height="32">
  <g>

  <!-- Piste -->
    <path stroke="rgb(0,0,0)" fill="rgb(0,0,0)" d="M 0,12 L 6,12 L 6,19 L 0,19 z " />

  <!-- Remplissage rouge -->
    <path stroke="rgb(255,0,0)" fill="rgb(255,0,0)" d="M 2,14 L 4,14 L 4,17 L 2,17 z " />

  <!-- signal -->
    <path stroke="rgb(0,0,0)" fill="rgb(0,0,0)" d="M 31,31 L 19,31 L 16,30 L 15,29 L 14,27 L 14,19 L 12,19 L 10,18 L 9,17 L 8,15 L 8,13 L 9,11 L 10,10 L 12,9  L  26,9 L 29,10 L 30,13 L 30,21 L 31,21 z " />

   
  <!-- liseré --> 
    <path stroke="rgb(255,255,255)" d="M 31,30 , 20,30 L 18,30 L 16,29 L 15,27 L 15,18  L 12,18 L 10,17 L 9,15 L 9,13  L 10,11 L 12,10 L 26,10 L 28,11 L 29,13 L 29,22 L 31,22 " />
    <path stroke="rgb(0,0,0)" d="M 31,21 L 31,29 " />

 
  <!-- Jaune 1 éteint-->
    <path stroke="rgb(90,90,90)" fill="rgb(90,90,90)" d="M 18,24 L 20,24 L 21,25 L 21,27 L 20,28 L 18,28 L 17,27 L 17,25 z " />

  <!-- Jaune 2 éteint-->
    <path stroke="rgb(90,90,0)" fill="rgb(90,90,0)" d="M 24,12 L 26,12 L 27,13 L 27,15 L 26,16 L 24,16 L 23,15 L 23,13 z " />
  
  <!-- Jaune 3 éteint-->
    <path stroke="rgb(90,90,0)" fill="rgb(90,90,0)" d="M 12,12 L 14,12 L 15,13 L 15,15 L 14,16 L 12,16 L 11,15 L 11,13 z " />

  <!-- Jaune 4 éteint-->
    <path stroke="rgb(90,90,90)" fill="rgb(90,90,90)" d="M 18,12 L 20,12 L 21,13 L 21,15 L 20,16 L 18,16 L 17,15 L 17,13 z " />


  </g>
</svg>