<svg width="32" height="32">
  <g>
  <!-- Track -->
    <path stroke="rgb(0,0,0)" fill="rgb(0,0,0)" d="M 0,12 L 31,12 L 31,19 L 0,19 z " />
  <!-- Ausleuchtung grau -->
    <path stroke="rgb(192,192,192)" fill="rgb(192,192,192)" d="M 8,14 L 23,14 L 23,17 L 8,17 z " />
  <!-- signal -->
     <path stroke="rgb(0,0,0)" fill="rgb(0,0,0)" d="M 1,25 L 3,22 L 28,22 L 30,24 L 30,19 L 31,19 L  31,26 L 29,29 L 3,29 L 1,26 z " />
  <!-- Carre -->
    <path stroke="rgb(90,0,0)" fill="rgb(90,0,0)" d="M 4,24 L 6,24 L 7,25 L 7,26 L 6,27 L 4,27 L 3,26 L 3,25 z " /> 
  <!-- Vert -->
    <path stroke="rgb(0,255,0)" fill="rgb(0,255,0)" d="M 11,24 L 13,24 L 14,25 L 14,26 L 13,27 L 11,27 L 10,26 L 10,25 z " />
  <!-- Rouge -->  
    <path stroke="rgb(90,0,0)" fill="rgb(90,0,0)" d="M 18,24 L 20,24 L 21,25 L 21,26 L 20,27 L 18,27 L 17,26 L 17,25 z " />  
  <!-- Jaune -->
    <path stroke="rgb(90,90,0)" fill="rgb(90,90,0)" d="M 25,24 L 27,24 L 28,25 L 28,26 L 27,27 L 25,27 L 24,26 L 24,25 z " />
  </g>
</svg>