<svg width="32" height="32">
  <g>

  <!-- Piste -->
    <path stroke="rgb(0,0,0)" fill="rgb(0,0,0)" d="M 0,12 L 31,12 L 31,19 L 0,19 z " />

  <!-- Remplissage jaune -->
    <path stroke="rgb(255,255,0)" fill="rgb(255,255,0)" d="M 8,14 L 23,14 L 23,17 L 8,17 z " />

  <!-- Pied -->
    <path stroke="rgb(90,90,90)" fill="rgb(90,90,90)" d="M 29,20 L 31,20 L 31,26 L 29,26 z " />

  <!-- signal -->
     <path stroke="rgb(0,0,0)" fill="rgb(0,0,0)" d="M 0,31 L 0,21 L 28,21 L 29,22 L 30,23 L 31,25 L 31,26 L 30,29 L 29,30 L 28,31  z " />

  <!-- liseré --> 
     <path stroke="rgb(255,255,255)" d="M  0,22 L 28,22 L 29,23 L 30,25 L 30,27 L 29,29 L 28,30 L 0,30 " />
     <path stroke="rgb(0,0,0)" d="M  0,23 L 0,29 " />

 <!-- Carre allumé -->
    <path stroke="rgb(255,0,0)" fill="rgb(255,0,0)" d="M 4,24 L 6,24 L 7,25 L 7,27 L 6,28 L 4,28 L 3,27 L 3,25 z " /> 

  <!-- Vert éteint-->
    <path stroke="rgb(0,90,0)" fill="rgb(0,90,0)" d="M 13,24 L 15,24 L 16,25 L 16,27 L 15,28 L 13,28 L 12,27 L 12,25 z " />

  <!-- Rouge allumé-->  
    <path stroke="rgb(255,0,0)" fill="rgb(255,0,0)" d="M 19,24 L 21,24 L 22,25 L 22,27 L 21,28 L 19,28 L 18,27 L 18,25 z " /> 
 
  <!-- Jaune éteint-->
    <path stroke="rgb(90,90,0)" fill="rgb(90,90,0)" d="M 25,24 L 27,24 L 28,25 L 28,27 L 27,28 L 25,28 L 24,27 L 24,25 z " />

  </g>
</svg>