<svg width="32" height="32">
  <g>

  <!-- Piste -->
    <path stroke="rgb(0,0,0)" fill="rgb(0,0,0)" d="M 0,12 L 13,12 L 13,19 L 0,19 z " />

    <path stroke="rgb(0,0,0)" fill="rgb(0,0,0)" d="M 27,12 L 31,12 L 31,19 L 27,19 z " />

  <!-- Remplissage rouge -->
    <path stroke="rgb(255,0,0)" fill="rgb(255,0,0)" d="M 3,14 L 10,14 L 10,17 L 3,17 z " />

  <!-- signal -->
    <path stroke="rgb(0,0,0)" fill="rgb(0,0,0)" d="M 15,13 L 17,10 L 20,9 L 23,10 L 25,13 L 25,21 L 31,21 L 31,31  L 20,31 L 17,30 L 15,27  z " />

  <!-- liseré --> 
    <path stroke="rgb(255,255,255)" d="M 31,30 , 21,30 L 19,30 L 17,29 L 16,27 L 16,13 L 17,11 L 19,10 L 21,10 L 23,11 L 24,13 L 24,22 L 31,22 " />
    <path stroke="rgb(0,0,0)" d="M 31,21 L 31,29 " />

  <!-- Gris central -->
    <path stroke="rgb(90,90,90)" fill="rgb(90,90,90)" d="M 19,18 L 21,18 L 22,19 L 22,21 L 21,22 L 19,22 L 18,21 L 18,19 z " /> 

  <!-- Jaune 1 allumé-->
    <path stroke="rgb(255,175,0)" fill="rgb(255,175,90)" d="M 19,24 L 21,24 L 22,25 L 22,27 L 21,28 L 19,28 L 18,27 L 18,25 z " />

  <!-- Jaune 2 allumé-->
    <path stroke="rgb(255,175,0)" fill="rgb(255,175,90)" d="M 19,12 L 21,12 L 22,13 L 22,15 L 21,16 L 19,16 L 18,15 L 18,13 z " />

  </g>
</svg>