<svg width="32" height="32">
  <g>
  <!-- Track -->
    <path stroke="rgb(0,0,0)" fill="rgb(0,0,0)" d="M 0,12 L 31,12 L 31,19 L 0,19 z " />
  <!-- Ausleuchtung grau -->
    <path stroke="rgb(255,255,0)" fill="rgb(255,255,0)" d="M 8,14 L 23,14 L 23,17 L 8,17 z " />
  <!-- signal -->
    <path stroke="rgb(0,0,0)" fill="rgb(0,0,0)" d="M 1,25 L 4,22 L 15,22 L 18,25 L 28,25 L 28,22 L 30,22 L 30,29 L 28,29 L 28,26 L 18,26 L 15,29 L 4,29 L 1,26 z " />
  <!-- Gruene Lampe -->
    <path stroke="rgb(255,255,255)" fill="rgb(255,255,255)" d="M 5,24 L 7,24 L 8,25 L 8,26 L 7,27 L 5,27 L 4,26 L 4,25 z " />
  <!-- Rote Lampe -->
    <path stroke="rgb(90,0,0)" fill="rgb(90,0,0)" d="M 12,24 L 14,24 L 15,25 L 15,26 L 14,27 L 12,27 L 11,26 L 11,25 z " />
  </g>
</svg>